<?xml version="1.0" encoding="UTF-8"?>
<svg width="120" height="40" viewBox="0 0 120 40" fill="none" xmlns="http://www.w3.org/2000/svg">
  <rect width="120" height="40" rx="4" fill="#4F46E5"/>
  <path d="M20 12H28V28H20V12ZM24 14C22.9 14 22 14.9 22 16C22 17.1 22.9 18 24 18C25.1 18 26 17.1 26 16C26 14.9 25.1 14 24 14ZM24 30C19.58 30 16 26.42 16 22C16 17.58 19.58 14 24 14C28.42 14 32 17.58 32 22C32 26.42 28.42 30 24 30ZM24 16C20.69 16 18 18.69 18 22C18 25.31 20.69 28 24 28C27.31 28 30 25.31 30 22C30 18.69 27.31 16 24 16Z" fill="white"/>
  <path d="M40 12H48V28H40V12ZM44 14C42.9 14 42 14.9 42 16C42 17.1 42.9 18 44 18C45.1 18 46 17.1 46 16C46 14.9 45.1 14 44 14ZM44 30C39.58 30 36 26.42 36 22C36 17.58 39.58 14 44 14C48.42 14 52 17.58 52 22C52 26.42 48.42 30 44 30ZM44 16C40.69 16 38 18.69 38 22C38 25.31 40.69 28 44 28C47.31 28 50 25.31 50 22C50 18.69 47.31 16 44 16Z" fill="white"/>
  <path d="M68 12H76V28H68V12ZM72 14C70.9 14 70 14.9 70 16C70 17.1 70.9 18 72 18C73.1 18 74 17.1 74 16C74 14.9 73.1 14 72 14ZM72 30C67.58 30 64 26.42 64 22C64 17.58 67.58 14 72 14C76.42 14 80 17.58 80 22C80 26.42 76.42 30 72 30ZM72 16C68.69 16 66 18.69 66 22C66 25.31 68.69 28 72 28C75.31 28 78 25.31 78 22C78 18.69 75.31 16 72 16Z" fill="white"/>
  <path d="M92 12H100V28H92V12ZM96 14C94.9 14 94 14.9 94 16C94 17.1 94.9 18 96 18C97.1 18 98 17.1 98 16C98 14.9 97.1 14 96 14ZM96 30C91.58 30 88 26.42 88 22C88 17.58 91.58 14 96 14C100.42 14 104 17.58 104 22C104 26.42 100.42 30 96 30ZM96 16C92.69 16 90 18.69 90 22C90 25.31 92.69 28 96 28C99.31 28 102 25.31 102 22C102 18.69 99.31 16 96 16Z" fill="white"/>
</svg>
